<svg width="197" height="73" viewBox="0 0 197 73" fill="none" xmlns="http://www.w3.org/2000/svg">
<path d="M0 8C0 12.4183 3.58172 16 8 16C12.4183 16 16 12.4183 16 8C16 3.58172 12.4183 0 8 0C3.58172 0 0 3.58172 0 8ZM132 8L133.061 6.93934L132.621 6.5H132V8ZM181 65C181 69.4183 184.582 73 189 73C193.418 73 197 69.4183 197 65C197 60.5817 193.418 57 189 57C184.582 57 181 60.5817 181 65ZM8 9.5H132V6.5H8V9.5ZM130.939 9.06066L159.439 37.5607L161.561 35.4393L133.061 6.93934L130.939 9.06066ZM159.439 37.5607L187.939 66.0607L190.061 63.9393L161.561 35.4393L159.439 37.5607Z" fill="url(#paint0_linear_16_529)"/>
<defs>
<linearGradient id="paint0_linear_16_529" x1="98.5" y1="8" x2="98.5" y2="65" gradientUnits="userSpaceOnUse">
<stop stop-color="#4161FC"/>
<stop offset="1" stop-color="#46C5E3"/>
</linearGradient>
</defs>
</svg>
